<?xml version="1.0" standalone="no"?>
<!DOCTYPE svg PUBLIC "-//W3C//DTD SVG 20010904//EN"
 "http://www.w3.org/TR/2001/REC-SVG-20010904/DTD/svg10.dtd">
<svg version="1.0" xmlns="http://www.w3.org/2000/svg"
 width="1776.000000pt" height="1776.000000pt" viewBox="0 0 1776.000000 1776.000000"
 preserveAspectRatio="xMidYMid meet">
<metadata>
Created by potrace 1.14, written by Peter Selinger 2001-2017
</metadata>
<g transform="translate(0.000000,1776.000000) scale(0.100000,-0.100000)"
fill="#000000" stroke="none">
<path d="M9380 13289 c-1785 -2453 -3244 -4465 -3242 -4470 1 -6 1473 -1992
3270 -4414 l3267 -4405 1698 0 1697 0 -217 288 c-120 158 -1623 2144 -3341
4414 -1718 2270 -3124 4130 -3124 4134 -1 3 1499 2007 3333 4452 1834 2444
3336 4449 3337 4453 2 5 -746 9 -1715 8 l-1718 0 -3245 -4460z"/>
<path d="M1884 14710 l-171 -5 1880 -2533 c1034 -1393 1880 -2532 1882 -2530
1 2 374 506 829 1121 l827 1118 -203 269 c-112 148 -594 786 -1073 1419 l-870
1150 -1465 -2 c-806 -1 -1542 -4 -1636 -7z"/>
<path d="M3595 5509 c-1028 -1386 -1874 -2527 -1878 -2535 -7 -12 217 -14
1630 -14 l1638 0 1045 1380 c575 759 1058 1398 1073 1419 l28 38 -826 1116
c-455 615 -830 1117 -834 1117 -3 0 -847 -1135 -1876 -2521z"/>
</g>
</svg>
